<svg width="39" height="27" viewBox="0 0 39 27" fill="none" xmlns="http://www.w3.org/2000/svg">
<path d="M34.031 17.9671C31.7876 17.9671 29.962 19.8497 29.962 22.1509C29.962 24.4522 31.7876 26.3348 34.031 26.3348C36.2744 26.3348 38.1 24.4522 38.1 22.1509C38.1 19.8498 36.2818 17.9671 34.031 17.9671ZM34.031 24.2395C32.9123 24.2395 32.004 23.302 32.004 22.1509C32.004 20.9928 32.9192 20.0623 34.031 20.0623C35.1497 20.0623 36.058 20.9999 36.058 22.1509C36.058 23.3093 35.1499 24.2395 34.031 24.2395Z" fill="white" stroke="white" stroke-width="0.2"/>
<path d="M32.5107 14.3258L31.1375 10.6895C31.3472 10.7768 31.5754 10.8267 31.8163 10.8267H32.708H32.808V10.7267V7.06402V6.96402H32.708H31.8163C31.0716 6.96402 30.4404 7.41218 30.1371 8.05124L29.4027 6.11847L29.3781 6.054H29.3092H24.697H24.597V6.154V7.98157V8.08157H24.697H28.0194L30.5786 14.856C29.7734 15.2289 29.0322 15.7659 28.4224 16.4672L28.4223 16.4672L28.4203 16.4696L26.4695 18.8621H23.5544V12.0729V11.9729H23.4544H18.182V3.28102C18.182 1.7168 16.9485 0.443411 15.4214 0.443411H3.66792C2.13335 0.443411 0.9 1.7245 0.9 3.28854V20.7821V20.8821H1H6.02209C5.87987 21.3387 5.81347 21.8309 5.8339 22.3355L5.83392 22.3359C5.93117 24.4989 7.63721 26.2423 9.74529 26.3272L9.74565 26.3272C12.0639 26.4121 13.9645 24.5059 13.9645 22.1434C13.9645 21.701 13.8981 21.2768 13.7759 20.8821H22.1922V20.8897H22.2922H27.343H27.3903L27.4203 20.853L29.9264 17.7933C30.7481 16.8528 31.9264 16.3169 33.1539 16.3169H36.2677H36.3677V16.2169V14.3894V14.2894H36.2677H33.1539C32.9354 14.2894 32.7228 14.3015 32.5107 14.3258ZM8.32193 20.8518L8.32286 20.8506C8.69233 20.37 9.27031 20.0624 9.91012 20.0624C10.5493 20.0624 11.1205 20.3695 11.4978 20.8511C11.7769 21.2102 11.9443 21.6624 11.9445 22.1504C11.9301 23.3096 11.0213 24.2395 9.90281 24.2395C8.78412 24.2395 7.87578 23.302 7.87578 22.1509C7.87578 21.6548 8.04342 21.2028 8.32193 20.8518ZM16.2058 18.8546H12.4088C11.7167 18.2978 10.8501 17.9671 9.91012 17.9671C8.97081 17.9671 8.0898 18.2974 7.4038 18.8546H2.88349V3.29606C2.88349 2.84468 3.2434 2.47851 3.67523 2.47851H15.436C15.6505 2.47851 15.8488 2.56764 15.9972 2.6644C16.0707 2.71234 16.1298 2.76076 16.1699 2.79778C16.1851 2.81183 16.1971 2.82382 16.2058 2.83313V18.8546ZM21.5709 18.8546H18.182V14.0005H21.5709V18.8546Z" fill="white" stroke="white" stroke-width="0.2"/>
</svg>
